<mxfile host="65bd71144e">
    <diagram id="uMMb-96oqo9kG98ndbNT" name="Page-1">
        <mxGraphModel dx="1313" dy="685" grid="1" gridSize="10" guides="1" tooltips="1" connect="1" arrows="1" fold="1" page="1" pageScale="1" pageWidth="827" pageHeight="1169" math="0" shadow="0">
            <root>
                <mxCell id="0"/>
                <mxCell id="1" parent="0"/>
                <mxCell id="2" value="Generate digest" style="shape=table;html=1;whiteSpace=wrap;startSize=50;container=1;collapsible=0;childLayout=tableLayout;fillColor=none;swimlaneFillColor=none;strokeColor=none;fontSize=20;" vertex="1" parent="1">
                    <mxGeometry x="29" y="40" width="770" height="790" as="geometry"/>
                </mxCell>
                <mxCell id="3" value="" style="shape=partialRectangle;html=1;whiteSpace=wrap;collapsible=0;dropTarget=0;pointerEvents=0;fillColor=none;top=0;left=0;bottom=0;right=0;points=[[0,0.5],[1,0.5]];portConstraint=eastwest;strokeColor=none;fontSize=20;" vertex="1" parent="2">
                    <mxGeometry y="50" width="770" height="48" as="geometry"/>
                </mxCell>
                <mxCell id="4" value="" style="shape=partialRectangle;html=1;whiteSpace=wrap;connectable=0;fillColor=none;top=1;left=1;bottom=1;right=1;overflow=hidden;strokeColor=none;fontSize=20;" vertex="1" parent="3">
                    <mxGeometry width="40" height="48" as="geometry"/>
                </mxCell>
                <mxCell id="5" value="User" style="shape=partialRectangle;html=1;whiteSpace=wrap;connectable=0;fillColor=none;top=1;left=1;bottom=1;right=1;overflow=hidden;fontSize=20;" vertex="1" parent="3">
                    <mxGeometry x="40" width="364" height="48" as="geometry"/>
                </mxCell>
                <mxCell id="6" value="System" style="shape=partialRectangle;html=1;whiteSpace=wrap;connectable=0;fillColor=none;top=1;left=1;bottom=1;right=1;overflow=hidden;fontSize=20;" vertex="1" parent="3">
                    <mxGeometry x="404" width="366" height="48" as="geometry"/>
                </mxCell>
                <mxCell id="7" value="" style="shape=partialRectangle;html=1;whiteSpace=wrap;collapsible=0;dropTarget=0;pointerEvents=0;fillColor=none;top=1;left=1;bottom=1;right=1;points=[[0,0.5],[1,0.5]];portConstraint=eastwest;fontSize=20;" vertex="1" parent="2">
                    <mxGeometry y="98" width="770" height="692" as="geometry"/>
                </mxCell>
                <mxCell id="8" value="" style="shape=partialRectangle;html=1;whiteSpace=wrap;connectable=0;fillColor=none;top=1;left=1;bottom=1;right=1;overflow=hidden;horizontal=0;fontSize=20;" vertex="1" parent="7">
                    <mxGeometry width="40" height="692" as="geometry"/>
                </mxCell>
                <mxCell id="9" value="" style="shape=partialRectangle;html=1;whiteSpace=wrap;connectable=0;fillColor=none;top=1;left=1;bottom=1;right=1;overflow=hidden;fontSize=20;" vertex="1" parent="7">
                    <mxGeometry x="40" width="364" height="692" as="geometry"/>
                </mxCell>
                <mxCell id="10" value="" style="shape=partialRectangle;html=1;whiteSpace=wrap;connectable=0;fillColor=none;top=1;left=1;bottom=1;right=1;overflow=hidden;fontSize=20;" vertex="1" parent="7">
                    <mxGeometry x="404" width="366" height="692" as="geometry"/>
                </mxCell>
                <mxCell id="11" style="edgeStyle=orthogonalEdgeStyle;html=1;fontSize=20;" edge="1" parent="1" source="12" target="14">
                    <mxGeometry relative="1" as="geometry"/>
                </mxCell>
                <mxCell id="12" value="Select Generate digest" style="html=1;align=center;verticalAlign=middle;rounded=1;absoluteArcSize=1;arcSize=10;dashed=0;fontSize=20;" vertex="1" parent="1">
                    <mxGeometry x="135.07" y="210" width="235.87" height="40" as="geometry"/>
                </mxCell>
                <mxCell id="13" style="edgeStyle=orthogonalEdgeStyle;html=1;fontSize=20;" edge="1" parent="1" source="14" target="16">
                    <mxGeometry relative="1" as="geometry"/>
                </mxCell>
                <mxCell id="14" value="Load Original File input button" style="html=1;align=center;verticalAlign=middle;rounded=1;absoluteArcSize=1;arcSize=10;dashed=0;fontSize=20;" vertex="1" parent="1">
                    <mxGeometry x="473.5" y="260" width="280" height="40" as="geometry"/>
                </mxCell>
                <mxCell id="34" style="edgeStyle=orthogonalEdgeStyle;html=1;" edge="1" parent="1" source="16" target="33">
                    <mxGeometry relative="1" as="geometry"/>
                </mxCell>
                <mxCell id="16" value="Select original file" style="html=1;align=center;verticalAlign=middle;rounded=1;absoluteArcSize=1;arcSize=10;dashed=0;fontSize=20;" vertex="1" parent="1">
                    <mxGeometry x="144.13" y="310" width="217.75" height="40" as="geometry"/>
                </mxCell>
                <mxCell id="32" style="edgeStyle=orthogonalEdgeStyle;html=1;" edge="1" parent="1" source="18" target="20">
                    <mxGeometry relative="1" as="geometry"/>
                </mxCell>
                <mxCell id="18" value="Show Generate digest button" style="html=1;align=center;verticalAlign=middle;rounded=1;absoluteArcSize=1;arcSize=10;dashed=0;fontSize=20;" vertex="1" parent="1">
                    <mxGeometry x="467.26" y="460" width="292.5" height="40" as="geometry"/>
                </mxCell>
                <mxCell id="19" style="edgeStyle=orthogonalEdgeStyle;html=1;fontSize=20;" edge="1" parent="1" source="20" target="22">
                    <mxGeometry relative="1" as="geometry"/>
                </mxCell>
                <mxCell id="20" value="Click Generate digest button" style="html=1;align=center;verticalAlign=middle;rounded=1;absoluteArcSize=1;arcSize=10;dashed=0;fontSize=20;" vertex="1" parent="1">
                    <mxGeometry x="110.07000000000001" y="510" width="285.88" height="40" as="geometry"/>
                </mxCell>
                <mxCell id="21" style="edgeStyle=orthogonalEdgeStyle;html=1;fontSize=20;" edge="1" parent="1" source="22" target="24">
                    <mxGeometry relative="1" as="geometry"/>
                </mxCell>
                <mxCell id="22" value="Show menu to save digest" style="html=1;align=center;verticalAlign=middle;rounded=1;absoluteArcSize=1;arcSize=10;dashed=0;fontSize=20;" vertex="1" parent="1">
                    <mxGeometry x="450" y="564.5" width="327" height="40" as="geometry"/>
                </mxCell>
                <mxCell id="23" style="edgeStyle=orthogonalEdgeStyle;html=1;fontSize=20;" edge="1" parent="1" source="24" target="26">
                    <mxGeometry relative="1" as="geometry"/>
                </mxCell>
                <mxCell id="24" value="Define digest filename" style="html=1;align=center;verticalAlign=middle;rounded=1;absoluteArcSize=1;arcSize=10;dashed=0;fontSize=20;" vertex="1" parent="1">
                    <mxGeometry x="117.06" y="620" width="271.87" height="40" as="geometry"/>
                </mxCell>
                <mxCell id="25" style="edgeStyle=orthogonalEdgeStyle;html=1;fontSize=20;" edge="1" parent="1" source="26" target="29">
                    <mxGeometry relative="1" as="geometry">
                        <mxPoint x="253" y="780" as="targetPoint"/>
                    </mxGeometry>
                </mxCell>
                <mxCell id="26" value="Save digest file" style="html=1;align=center;verticalAlign=middle;rounded=1;absoluteArcSize=1;arcSize=10;dashed=0;fontSize=20;" vertex="1" parent="1">
                    <mxGeometry x="152.74" y="690" width="200.51" height="40" as="geometry"/>
                </mxCell>
                <mxCell id="27" style="edgeStyle=orthogonalEdgeStyle;html=1;fontSize=20;" edge="1" parent="1" source="28" target="12">
                    <mxGeometry relative="1" as="geometry"/>
                </mxCell>
                <mxCell id="28" value="" style="ellipse;fillColor=#000000;strokeColor=none;fontSize=20;" vertex="1" parent="1">
                    <mxGeometry x="238" y="150" width="30" height="30" as="geometry"/>
                </mxCell>
                <mxCell id="29" value="" style="ellipse;html=1;shape=endState;fillColor=#000000;strokeColor=#000000;fontSize=20;" vertex="1" parent="1">
                    <mxGeometry x="237.99" y="770" width="30" height="30" as="geometry"/>
                </mxCell>
                <mxCell id="36" style="edgeStyle=orthogonalEdgeStyle;html=1;" edge="1" parent="1" source="33" target="35">
                    <mxGeometry relative="1" as="geometry"/>
                </mxCell>
                <mxCell id="33" value="Load hash options" style="html=1;align=center;verticalAlign=middle;rounded=1;absoluteArcSize=1;arcSize=10;dashed=0;fontSize=20;" vertex="1" parent="1">
                    <mxGeometry x="504.63" y="360" width="217.75" height="40" as="geometry"/>
                </mxCell>
                <mxCell id="38" style="edgeStyle=orthogonalEdgeStyle;html=1;" edge="1" parent="1" source="35" target="18">
                    <mxGeometry relative="1" as="geometry"/>
                </mxCell>
                <mxCell id="35" value="Select hash option" style="html=1;align=center;verticalAlign=middle;rounded=1;absoluteArcSize=1;arcSize=10;dashed=0;fontSize=20;" vertex="1" parent="1">
                    <mxGeometry x="144.13" y="410" width="217.75" height="40" as="geometry"/>
                </mxCell>
            </root>
        </mxGraphModel>
    </diagram>
</mxfile>